<?xml version="1.0" encoding="UTF-8"?>
<svg id="Layer_2" data-name="Layer 2" xmlns="http://www.w3.org/2000/svg" viewBox="0 0 68.48 68.48">
  <defs>
    <style>
      .cls-1 {
        fill: #fff;
      }
    </style>
  </defs>
  <g id="Layer_1-2" data-name="Layer 1">
    <g id="uuid-db6a649d-5ed5-449f-9d8e-435e43b15a9c" data-name="Layer 1-2">
      <g id="Orange_Asterisk_star" data-name="Orange Asterisk star">
        <path class="cls-1" d="M34.24,0h0c3.67,0,6.64,2.97,6.64,6.64v55.19c0,3.67-2.97,6.64-6.64,6.64h0c-3.67,0-6.64-2.97-6.64-6.64V6.64c0-3.67,2.97-6.64,6.64-6.64Z"/>
        <path class="cls-1" d="M0,34.24h0c0-3.67,2.97-6.64,6.64-6.64h55.19c3.67,0,6.64,2.97,6.64,6.64h0c0,3.67-2.97,6.64-6.64,6.64H6.64c-3.67,0-6.64-2.97-6.64-6.64Z"/>
        <path class="cls-1" d="M10.03,10.03h0c2.59-2.59,6.8-2.59,9.4,0l39.03,39.03c2.59,2.59,2.59,6.8,0,9.4h0c-2.59,2.59-6.8,2.59-9.4,0L10.03,19.43c-2.59-2.59-2.59-6.8,0-9.4Z"/>
        <path class="cls-1" d="M10.03,58.45h0c-2.59-2.59-2.59-6.8,0-9.4L49.06,10.03c2.59-2.59,6.8-2.59,9.4,0h0c2.59,2.59,2.59,6.8,0,9.4L19.43,58.45c-2.59,2.59-6.8,2.59-9.4,0Z"/>
      </g>
    </g>
  </g>
</svg>