<svg xmlns="http://www.w3.org/2000/svg" viewBox="0 0 180 180">
  <rect width="180" height="180" rx="40" fill="#1e3a5f"/>
  <g transform="translate(28 28) scale(1.81)">
    <path fill="#fff" d="M34.24,0h0c3.67,0,6.64,2.97,6.64,6.64v55.19c0,3.67-2.97,6.64-6.64,6.64h0c-3.67,0-6.64-2.97-6.64-6.64V6.64c0-3.67,2.97-6.64,6.64-6.64Z"/>
    <path fill="#fff" d="M0,34.24h0c0-3.67,2.97-6.64,6.64-6.64h55.19c3.67,0,6.64,2.97,6.64,6.64h0c0,3.67-2.97,6.64-6.64,6.64H6.64c-3.67,0-6.64-2.97-6.64-6.64Z"/>
    <path fill="#fff" d="M10.03,10.03h0c2.59-2.59,6.8-2.59,9.4,0l39.03,39.03c2.59,2.59,2.59,6.8,0,9.4h0c-2.59,2.59-6.8,2.59-9.4,0L10.03,19.43c-2.59-2.59-2.59-6.8,0-9.4Z"/>
    <path fill="#fff" d="M10.03,58.45h0c-2.59-2.59-2.59-6.8,0-9.4L49.06,10.03c2.59-2.59,6.8-2.59,9.4,0h0c2.59,2.59,2.59,6.8,0,9.4L19.43,58.45c-2.59,2.59-6.8,2.59-9.4,0Z"/>
  </g>
</svg>
