<?xml version="1.0" encoding="UTF-8"?>
<svg id="Layer_2" data-name="Layer 2" xmlns="http://www.w3.org/2000/svg" viewBox="0 0 243.54 142.06">
  <defs>
    <style>
      .cls-1 {
        fill: #1e3a5f;
      }
    </style>
  </defs>
  <g id="Layer_1-2" data-name="Layer 1">
    <g>
      <g>
        <path class="cls-1" d="M0,141.29V62.93h13.52v43.34h8.42l15.41-23.39h15.18l-18.95,27.82,20.5,30.59h-15.74l-15.63-23.16h-9.2v23.16H0Z"/>
        <path class="cls-1" d="M60.51,141.29V62.93h13.52v78.36h-13.52Z"/>
        <path class="cls-1" d="M105.73,142.06c-2.73,0-5.32-.37-7.76-1.11-2.44-.74-4.62-1.83-6.54-3.27-1.92-1.44-3.46-3.25-4.6-5.43-1.15-2.18-1.72-4.75-1.72-7.7,0-3.77.74-6.85,2.22-9.25,1.48-2.4,3.49-4.23,6.04-5.49,2.55-1.25,5.45-2.12,8.7-2.6,3.25-.48,6.65-.72,10.2-.72h11.42c0-2.59-.41-4.82-1.22-6.71-.81-1.88-2.09-3.38-3.82-4.49-1.74-1.11-3.97-1.66-6.71-1.66-1.77,0-3.42.2-4.93.61-1.52.41-2.81,1.04-3.88,1.88-1.07.85-1.83,1.94-2.27,3.27h-13.85c.52-3.03,1.57-5.63,3.16-7.81,1.59-2.18,3.55-3.97,5.87-5.38,2.33-1.4,4.89-2.46,7.7-3.16,2.81-.7,5.65-1.05,8.53-1.05,8.5,0,14.68,2.44,18.56,7.31,3.88,4.88,5.82,11.71,5.82,20.5v31.48h-11.97l-.33-7.54c-1.7,2.51-3.73,4.36-6.1,5.54-2.37,1.18-4.66,1.94-6.87,2.27-2.22.33-4.1.5-5.65.5ZM108.39,131.09c2.96,0,5.58-.55,7.87-1.66,2.29-1.11,4.12-2.66,5.49-4.66,1.37-2,2.05-4.28,2.05-6.87v-1.88h-10.64c-1.77,0-3.53.06-5.26.17-1.74.11-3.31.41-4.71.89-1.4.48-2.53,1.2-3.38,2.16-.85.96-1.28,2.33-1.28,4.1s.46,3.21,1.39,4.32c.92,1.11,2.14,1.96,3.66,2.55,1.51.59,3.12.89,4.82.89Z"/>
        <path class="cls-1" d="M149.51,141.29v-58.41h12.3l.78,7.65c1.48-2.22,3.16-3.93,5.04-5.15,1.88-1.22,3.91-2.09,6.1-2.6,2.18-.52,4.38-.78,6.59-.78h2.27c.7,0,1.28.04,1.72.11v12.86h-3.55c-3.84,0-7.09.74-9.75,2.22-2.66,1.48-4.66,3.58-5.99,6.32-1.33,2.73-2,6.1-2,10.09v27.71h-13.52Z"/>
      </g>
      <g id="uuid-0941948f-a7d5-4f9a-aa51-ebca288b6dcc" data-name="Layer 1-2">
        <g id="Orange_Asterisk_star" data-name="Orange Asterisk star">
          <path class="cls-1" d="M209.3,0h0c3.67,0,6.64,2.97,6.64,6.64v55.19c0,3.67-2.97,6.64-6.64,6.64h0c-3.67,0-6.64-2.97-6.64-6.64V6.64c0-3.67,2.97-6.64,6.64-6.64Z"/>
          <path class="cls-1" d="M175.06,34.24h0c0-3.67,2.97-6.64,6.64-6.64h55.19c3.67,0,6.64,2.97,6.64,6.64h0c0,3.67-2.97,6.64-6.64,6.64h-55.19c-3.67,0-6.64-2.97-6.64-6.64Z"/>
          <path class="cls-1" d="M185.09,10.03h0c2.59-2.59,6.8-2.59,9.4,0l39.03,39.03c2.59,2.59,2.59,6.8,0,9.4h0c-2.59,2.59-6.8,2.59-9.4,0l-39.03-39.03c-2.59-2.59-2.59-6.8,0-9.4Z"/>
          <path class="cls-1" d="M185.09,58.45h0c-2.59-2.59-2.59-6.8,0-9.4l39.03-39.03c2.59-2.59,6.8-2.59,9.4,0h0c2.59,2.59,2.59,6.8,0,9.4l-39.03,39.03c-2.59,2.59-6.8,2.59-9.4,0Z"/>
        </g>
      </g>
    </g>
  </g>
</svg>